<svg width="36" height="36" viewBox="0 0 36 36" fill="none" xmlns="http://www.w3.org/2000/svg">
<path d="M17.9449 0C8.03443 0 0 8.03421 0 17.9447C0 27.8556 8.03443 35.8892 17.9449 35.8892C27.8565 35.8892 35.8901 27.8556 35.8901 17.9447C35.8901 8.03486 27.8565 0.000857138 17.9447 0.000857138L17.9449 0ZM26.1744 25.8814C25.8529 26.4086 25.1629 26.5757 24.6358 26.2521C20.4225 23.6786 15.1185 23.0957 8.87207 24.5229C8.27014 24.66 7.67014 24.2829 7.533 23.6807C7.39522 23.0786 7.77086 22.4786 8.37429 22.3414C15.21 20.7791 21.0735 21.4521 25.8036 24.3429C26.3308 24.6664 26.4979 25.3543 26.1744 25.8814ZM28.3708 20.9946C27.9658 21.6536 27.1044 21.8614 26.4465 21.4564C21.6229 18.4909 14.2701 17.6323 8.56479 19.3641C7.82486 19.5876 7.04336 19.1706 6.81879 18.432C6.59593 17.6921 7.01314 16.9121 7.75179 16.6871C14.2689 14.7096 22.3708 15.6675 27.9101 19.0714C28.5679 19.4764 28.7758 20.3376 28.3708 20.9946ZM28.5594 15.9066C22.7758 12.4714 13.2336 12.1556 7.71171 13.8315C6.825 14.1004 5.88729 13.5999 5.61857 12.7131C5.34986 11.826 5.85 10.8889 6.73736 10.6194C13.0761 8.69507 23.6136 9.06686 30.2724 13.0198C31.0716 13.4931 31.3331 14.5232 30.8595 15.3197C30.3881 16.1173 29.3552 16.3802 28.5602 15.9066H28.5594Z" fill="white"/>
</svg>
